<svg id="Layer_1" height="512" viewBox="0 0 152.5394 225.2882" width="512" xmlns="http://www.w3.org/2000/svg"><g><ellipse cx="130.035" cy="37.064" rx="22.5" ry="22.5" transform="matrix(.204 -.979 .979 .204 67.251 156.817)"/><path d="m116.7551 133.4764 10.9541-11.2881c3.6045-3.7148 4.5469-9.2666 2.3701-13.9619-2.1772-4.6963-7.021-7.5547-12.1875-7.2148l-34.2417 2.324c-1.4128 2.1469-2.7622 4.3312-4.0041 6.5441z"/><path d="m61.052 154.9793c-4.8076 4.9541-4.689 12.8682.2656 17.6758 2.4282 2.3564 5.5679 3.5293 8.7041 3.5293 3.2617 0 6.5205-1.2686 8.9717-3.7949l16.7118-17.2213-21.5432-13.6987z"/><path d="m146.3337 207.2889-4.42-11.3082-19.6504-53.2471c-.9473-2.5674-2.71-4.7529-5.0195-6.2207l-40.6465-25.8457c3.5031-6.6089 7.9557-12.9623 12.4597-18.808 4.3755-5.679 8.7994-10.8788 12.4485-15.359 7.2178-7.4307 9.5146-19.707 2.9854-25.6016-1.4749-1.3323-3.2873-2.4492-5.3366-3.2631l-69.5262-46.2939c-3.6772-2.4482-8.644-1.4521-11.0923 2.2256-2.4487 3.6777-1.4526 8.6436 2.2251 11.0928l34.3732 22.8874 37.3705 16.2173c1.6869.7313 3.1476 1.9003 4.2245 3.38 2.14 2.9404 2.5698 6.8368 1.1241 10.1693-1.0952 2.523-3.1075 4.4695-5.6672 5.4797-2.5583 1.0104-5.3583.9636-7.882-.1324l-20.5548-8.92c-6.5042 7.2612-11.3149 14.3929-15.752 23.4547-1.9078 3.8964-3.7481 8.1459-5.6246 12.9223-4.8203 15.6787 4.1377 22.332 12.2773 26.543.8213.4248 1.5996.8164 2.3438 1.166l43.2764 27.5186 17.177 46.5448c1.6876 4.5731 4.918 8.4139 9.134 10.8604l10.0822 5.8505 10.7852 6.2584c1.8651 1.0823 4.3673.0181 4.6439-2.1206.0435-.3367.0207-.6639-.0968-.9647z"/><path d="m95.7431 66.3979c1.759-4.0521-.1005-8.7645-4.1539-10.5237l-80.4023-34.8916c-4.0535-1.7592-8.7653.1011-10.5237 4.1539-1.1699 2.6958-.7388 5.6829.8743 7.8993.8114 1.1149 1.9233 2.0353 3.2796 2.6244l80.4023 34.8915c4.0536 1.7593 8.7653-.101 10.5237-4.1538z"/></g></svg>