<svg id="Layer_1" enable-background="new 0 0 512 512" height="512" viewBox="0 0 512 512" width="512" xmlns="http://www.w3.org/2000/svg"><g id="XMLID_851_"><g id="XMLID_61_"><path id="XMLID_925_" d="m420.486 436.775c50.461 0 91.514-41.053 91.514-91.514 0-33.754-18.506-64.483-47.78-80.403.721-4.517 1.085-9.098 1.085-13.697 0-47.589-38.716-86.305-86.305-86.305-9.114 0-17.898 1.431-26.152 4.062.118-2.707.199-5.416.199-8.121 0-32.889-8.782-65.17-25.396-93.353-16.122-27.348-39.167-50.205-66.644-66.1-3.098-1.792-6.917-1.792-10.015 0-27.478 15.895-50.522 38.752-66.644 66.1-16.614 28.183-25.396 60.464-25.396 93.353 0 1.372.038 2.74.068 4.109-8.512-1.684-17.196-2.547-25.957-2.547-27.415 0-53.744 8.272-76.139 23.923-21.88 15.291-38.5 36.488-48.063 61.301-1.986 5.153.582 10.941 5.735 12.927 1.183.456 2.398.672 3.594.672 4.015 0 7.803-2.436 9.333-6.407 16.694-43.315 59.107-72.417 105.541-72.417 9.362 0 18.612 1.158 27.592 3.41 3.29 24.106 11.313 47.382 23.692 68.381 14.779 25.07 35.388 46.349 59.885 61.968-9.204 49.817-50.902 87.474-101.169 91.924v-38.17l45.588-45.588c3.905-3.905 3.905-10.237 0-14.143s-10.237-3.905-14.143 0l-31.445 31.445v-74.423c0-5.523-4.477-10-10-10s-10 4.477-10 10v31.295l-19.512-19.512c-3.905-3.905-10.237-3.905-14.143 0s-3.905 10.237 0 14.143l33.655 33.655v81.275c-42.429-3.833-80.053-31.765-95.54-71.945-1.987-5.153-7.774-7.719-12.928-5.734-5.153 1.986-7.721 7.774-5.734 12.928 9.564 24.812 26.184 46.009 48.063 61.298 19.658 13.737 42.346 21.785 66.138 23.549v63.886h-113.063c-5.523 0-10 4.477-10 10s4.477 10 10 10h492c5.523 0 10-4.477 10-10s-4.477-10-10-10h-119.41v-63.423c11.806 5.389 24.646 8.198 37.896 8.198zm24.819-185.613c0 5.674-.718 11.31-2.134 16.751-1.241 4.771 1.18 9.735 5.704 11.694 26.197 11.346 43.125 37.117 43.125 65.655 0 39.433-32.081 71.514-71.514 71.514-13.548 0-26.547-3.75-37.896-10.871v-58.661l39.356-39.356c3.905-3.905 3.905-10.237 0-14.143-3.905-3.905-10.237-3.905-14.143 0l-25.214 25.214v-21.63c0-5.523-4.477-10-10-10s-10 4.477-10 10v59.827l-22.738-22.738c-3.905-3.905-10.237-3.905-14.143 0s-3.905 10.237 0 14.143l36.88 36.88v20.714c-10.243 6.958-22.126 10.62-34.651 10.62-34.153 0-61.939-27.786-61.939-61.939 0-28.545 19.329-53.266 47.004-60.116 2.943-.729 5.396-2.752 6.671-5.503s1.232-5.931-.114-8.646c-4.556-9.188-6.866-19.083-6.866-29.41 0-36.561 29.745-66.305 66.305-66.305s66.307 29.745 66.307 66.306zm-266.352-90.365c0-56.447 29.375-109.219 77.047-139.124 47.672 29.904 77.047 82.676 77.047 139.124 0 6.009-.342 12.042-.99 17.999-23.668 15.407-39.362 42.08-39.362 72.365 0 5.337.493 10.583 1.437 15.723-8.363 9.866-17.776 18.644-28.132 26.242v-116.41l30.733-30.733c3.905-3.905 3.905-10.237 0-14.143-3.905-3.905-10.237-3.905-14.143 0l-16.59 16.592v-42.432c0-5.523-4.477-10-10-10s-10 4.477-10 10v89.272l-24.783-24.783c-3.905-3.905-10.237-3.905-14.142 0s-3.905 10.237 0 14.142l38.925 38.925v69.542c-41.739-30.716-67.047-79.92-67.047-132.301zm-35.889 267.311c43.047-3.233 80.94-27.154 102.936-62.317v126.209h-102.936zm122.936 63.892v-83.612c15.036 17.368 37.218 28.388 61.939 28.388 12.182 0 23.909-2.615 34.651-7.656v62.88z"/><path id="XMLID_1620_" d="m452.333 119.333c32.9 0 59.667-26.767 59.667-59.667s-26.766-59.666-59.667-59.666-59.667 26.766-59.667 59.667 26.767 59.666 59.667 59.666zm0-99.333c21.873 0 39.667 17.794 39.667 39.667s-17.794 39.667-39.667 39.667-39.667-17.794-39.667-39.667c.001-21.873 17.795-39.667 39.667-39.667z"/><path id="XMLID_1622_" d="m10 305.42c2.63 0 5.21-1.06 7.07-2.92 1.86-1.87 2.93-4.44 2.93-7.07 0-2.64-1.07-5.21-2.93-7.08-1.86-1.86-4.44-2.93-7.07-2.93s-5.21 1.07-7.07 2.93-2.93 4.44-2.93 7.08c0 2.63 1.07 5.21 2.93 7.07s4.44 2.92 7.07 2.92z"/></g></g></svg>