<svg enable-background="new 0 0 550 550" viewBox="0 0 550 550" xmlns="http://www.w3.org/2000/svg"><g id="_x36_438_-_Lying_Down"><g><g><g><path d="m54.389 419.671c-11.888.001-23.382-5.996-30.05-16.708-5.274-8.473-6.715-18.831-3.953-28.418 2.767-9.603 9.515-17.621 18.514-22 19.431-9.455 51.435-23.639 79.671-36.152 17.708-7.848 34.434-15.26 46.475-20.795 8.306-3.826 19.47-5.302 29.993-3.982l62.369-1.393c.491-.009.984.023 1.47.103 2.601.43 6.095-.342 6.998-1.069 9.156-8.629 17.824-17.717 26.973-27.329-1.065-.29-2.132-.64-3.196-1.069-8.347-3.371-19.608-7.557-31.531-11.988-19.5-7.248-39.663-14.742-53.042-20.812-17.858-8.104-25.806-27.572-18.486-45.284 7.679-18.568 26.968-26.689 45.865-19.318 15.156 5.923 49.333 18.579 64.869 23.907 7.646 2.626 16.371 3.809 24.566 3.326 11.865-.702 23.987-1.909 35.71-3.075 13.472-1.341 27.401-2.727 41.238-3.387 8.821-.419 16.483.402 23.421 2.514 4.227 1.287 6.609 5.756 5.323 9.983-1.287 4.227-5.752 6.611-9.983 5.324-5.082-1.547-11.146-2.164-17.999-1.839-13.425.641-27.146 2.006-40.415 3.327-11.88 1.182-24.164 2.405-36.354 3.126-10.23.602-21.134-.878-30.701-4.165-15.697-5.383-50.206-18.162-65.495-24.136-10.934-4.265-20.85-.134-25.26 10.526-4.081 9.877.159 19.994 10.311 24.601 12.868 5.838 33.66 13.566 52.005 20.385 12.03 4.472 23.394 8.695 31.943 12.148 2.308.93 5.511 1.213 8.902 1.512 1.958.173 3.981.351 6.102.664 2.966.438 5.438 2.496 6.405 5.334s.267 5.978-1.815 8.136c-3.483 3.61-6.896 7.195-10.272 10.743-9.495 9.977-18.465 19.4-28.139 28.516-5.077 4.79-13.588 6.093-19.717 5.309l-62.32 1.392c-.423.007-.845-.015-1.264-.072-7.697-1.052-16.045-.065-21.787 2.579-12.146 5.584-28.921 13.019-46.68 20.889-28.114 12.46-59.98 26.582-79.153 35.911-5.002 2.435-8.604 6.712-10.14 12.044-1.532 5.316-.764 10.832 2.161 15.532 5.254 8.439 15.986 11.541 24.964 7.203 16.454-7.94 44.867-20.514 69.937-31.607 16.819-7.443 32.706-14.474 43.545-19.459 8.234-3.785 18.983-5.145 28.051-3.557 29.675 5.232 59.656 11.34 88.65 17.247 5.144 1.048 10.287 2.096 15.431 3.14 12.737 2.581 22.318-.109 31.071-8.725 19.124-18.82 38.831-37.645 57.889-55.85 10.162-9.707 20.671-19.745 30.956-29.654 11.816-11.387 16.925-23.846 15.184-37.032-.579-4.38 2.503-8.4 6.883-8.979 4.383-.581 8.4 2.503 8.979 6.883 2.41 18.24-4.486 35.754-19.943 50.649-10.311 9.934-20.831 19.983-31.006 29.701-19.016 18.165-38.679 36.948-57.718 55.685-12.596 12.396-27.468 16.646-45.474 13.001-5.149-1.045-10.298-2.094-15.445-3.143-28.892-5.886-58.767-11.972-88.226-17.166-5.941-1.042-13.243-.125-18.597 2.336-10.943 5.032-26.881 12.085-43.754 19.552-24.956 11.044-53.241 23.561-69.457 31.387-4.977 2.4-10.253 3.548-15.452 3.548z"/></g></g><g><path d="m472.248 247.572c-32.396 0-58.752-26.293-58.752-58.612s26.356-58.613 58.752-58.613 58.752 26.294 58.752 58.613-26.356 58.612-58.752 58.612zm0-101.225c-23.573 0-42.752 19.116-42.752 42.613s19.179 42.612 42.752 42.612 42.752-19.115 42.752-42.612-19.179-42.613-42.752-42.613z"/></g></g></g><g id="Layer_1"/></svg>