<svg id="Layer_1" enable-background="new 0 0 38 38" viewBox="0 0 38 38" xmlns="http://www.w3.org/2000/svg"><g id="Slippery_Road"><path d="m6.4166446 26.4135857c1.4023771.9406166 4.4119496 2.2390976 5.8803105 3.559082 1.026001.9226074.9204712 2.3046875-.1234741 3.1923828-.5034218.4283447-1.8666544 1.3522491-1.7666016 1.2810059-.2437744.173584-.1195679.557373.1796875.5539551 6.9113178-.0823593 6.4981976-.0283089 6.6622314-.1884766.4595337-.4484863 1.7156372-1.8261719 1.5102539-3.5083008-.3865585-3.1665974-4.1866541-4.3751831-7.0925293-5.7629395-1.0292969-.4916992-2.0932007-.9216309-3.0812988-1.4848633-.6867681-.3913574-.6899419-.876709-.1508179-1.4660645.0026855-.0029297.0053101-.0058594.0079956-.0087891.2663574-.2893066-.0010986-.7446289-.3825073-.6489258-1.0398068.2608585-2.0295382.8376026-2.4163213 1.8227539-.3713988.9460451-.1013183 2.0727541.7730714 2.6591799z"/><path d="m32.4302559 31.6460075c.3509178-1.5059128-.3806877-2.9552574-1.5352783-3.7338867-2.6974602-1.8203773-3.5250435-1.7569656-10.1314087-3.9091797-2.6881104-.8757324-3.6749268-1.1552734-3.7836304-1.8461914-.0380859-.2416992.0360107-.4848633.1747437-.7172852.1832275-.3066406-.1134644-.6791992-.4543457-.5720215-1.1940622.3765545-2.1606255.8653259-2.2261963 2.2470703-.0709829 1.4940624 1.2797108 1.9693565 4.3209839 3.1884766 4.9172745 1.9707642 5.5672894 1.9316292 6.4716797 3.0852051.5005779.6381264.6286526 1.4053421.1066895 2.0344238-.211731.255127-.0187988.6416016.3126831.6359863 2.1226196-.0354004 4.2451782-.0710449 6.3677979-.1064453.1811522-.0029296.3350829-.1298827.3762816-.3061523z"/><path d="m10.3772163 16.6477165c-.2752686-.0476074-.5396118.1281738-.6033936.4001465-.1322021.5639648-.2630005 1.0969238-.3471069 1.637207-.0739746.4750977-.1663208 1.0471191.4075317 1.2919922.4667969.1989746.9833374.3105469 1.4890137.3828125 1.2214508.175087 1.3163385-.1341038 1.7318726-2.71875.0459595-.2854004-.1455078-.5551758-.430542-.6044922-.7596435-.1313476-1.4961548-.258789-2.2473755-.388916z"/><path d="m23.3285713 18.9416618c-.2709961-.0432129-.5302734.1291504-.595459.395752-.1074219.4396973-.2136841.8500977-.2565918 1.2670898-.1622925 1.5761719-.2451172 1.6186523 1.5585327 1.9958496 1.0779343.2259274 1.5582428-.1812191 1.7271118-1.0700684.1027222-.5405273.1709595-1.0878906.2439575-1.6420898.0372925-.2832031-.1575928-.5449219-.4396362-.5898438-.7457275-.1188964-1.482727-.236328-2.237915-.3566894z"/><path d="m28.440937 16.8764763c.2944946-1.3984385.5248413-2.8112803.8408813-4.2048349.1639404-.7229004-.0595093-1.2614746-.6185303-1.6430664-.3723755-.2541504-.5131836-.5686035-.5919189-.9733887-.2329712-1.1962891-.4570923-2.3957515-.7327881-3.5825191-.1947021-.8383789-.6675415-1.4018555-1.6030273-1.5605469-3.5518799-.6020508-7.0963745-1.2482913-10.6446533-1.8715823-.8294678-.1459961-1.5309448.0959473-1.984375.824707-.6848145 1.1000979-1.3347168 2.2221682-1.992981 3.3388674-.1687012.2861328-.3309326.498291-.7280884.526123-.569641.0397951-.9979858.3369138-1.125122.9584958-.3240967 1.5856934-.6820068 3.1647949-.9793091 4.7556152-.1229858.6577148.4612427 1.3791504 1.1414185 1.5078125 3.4819031.6566544 9.1339054 1.6499777 17.2979126 3.0910654 1.0802002.0075684 1.5437012-.3266601 1.720581-1.166748zm-3.9069213-6.711915c-2.6339035-.4246454-8.2182045-1.4684095-10.3547974-1.8654785-.7765503-.1442871-1.0415039-.693603-.6466064-1.3601069.2816772-.4755859.5858154-.9377441.8736572-1.409668.425354-.6972656 1.0449829-.8864746 1.8200684-.7409668.9106998.1710739 7.145668 1.3270364 7.8747559 1.4421387.6674194.1054688 1.1306152.4174805 1.2649536 1.1252441.1099243.5793457.2455444 1.153564.3220215 1.5085444.0127562 1.0656738-.3360597 1.4321289-1.1540528 1.300293z"/></g></svg>